Exact Audio Copy V0.99 prebeta 4 from 23. January 2008

EAC extraction logfile from 3. October 2009, 11:27

Various Artists / Ten Years Cocoon Ibiza CD2 Mixed By Loco Dice

Used drive  : Optiarc DVD RW AD-7201A   Adapter: 0  ID: 0

Read mode               : Secure
Utilize accurate stream : Yes
Defeat audio cache      : Yes
Make use of C2 pointers : No

Read offset correction                      : 48
Overread into Lead-In and Lead-Out          : No
Fill up missing offset samples with silence : Yes
Delete leading and trailing silent blocks   : No
Null samples used in CRC calculations       : Yes
Used interface                              : Native Win32 interface for Win NT & 2000
Gap handling                                : Appended to previous track

Used output format              : User Defined Encoder
Selected bitrate                : 128 kBit/s
Quality                         : High
Add ID3 tag                     : No
Command line compressor         : C:Program FilesExact Audio CopyFlacflac.exe
Additional command line options : -8 -V -T "ARTIST=%a" -T "TITLE=%t" -T "ALBUM=%g" -T "DATE=%y" -T "TRACKNUMBER=%n" -T "GENRE=%m" -T "COMMENT=EAC FLAC -8" %s


TOC of the extracted CD

     Track |   Start  |  Length  | Start sector | End sector 
    ---------------------------------------------------------
        1  |  0:00.00 |  4:40.06 |         0    |    21005   
        2  |  4:40.06 |  5:32.27 |     21006    |    45932   
        3  | 10:12.33 |  4:54.23 |     45933    |    68005   
        4  | 15:06.56 |  3:13.25 |     68006    |    82505   
        5  | 18:20.06 |  4:59.70 |     82506    |   105000   
        6  | 23:20.01 |  3:23.12 |    105001    |   120237   
        7  | 26:43.13 |  4:17.30 |    120238    |   139542   
        8  | 31:00.43 |  6:08.48 |    139543    |   167190   
        9  | 37:09.16 |  5:22.12 |    167191    |   191352   
       10  | 42:31.28 |  5:02.65 |    191353    |   214067   
       11  | 47:34.18 |  5:26.05 |    214068    |   238522   
       12  | 53:00.23 |  5:11.41 |    238523    |   261888   
       13  | 58:11.64 |  4:32.63 |    261889    |   282351   
       14  | 62:44.52 |  6:04.58 |    282352    |   309709   
       15  | 68:49.35 |  4:16.08 |    309710    |   328917   


Track  1

     Filename J:TorrentsVA - Ten Years Cocoon IbizaVarious Artists - Ten Years Cocoon Ibiza CD2 Mixed By Loco Dice 1. Jin Choi - Carnivores.wav

     Pre-gap length  0:00:02.00

     Peak level 97.7 %
     Track quality 99.9 %
     Test CRC 707BB91E
     Copy CRC 707BB91E
     Track not present in AccurateRip database
     Copy OK

Track  2

     Filename J:TorrentsVA - Ten Years Cocoon IbizaVarious Artists - Ten Years Cocoon Ibiza CD2 Mixed By Loco Dice 2. Levon Vincent - Woman Is The Devil.wav

     Peak level 97.7 %
     Track quality 99.9 %
     Test CRC F33746D7
     Copy CRC F33746D7
     Track not present in AccurateRip database
     Copy OK

Track  3

     Filename J:TorrentsVA - Ten Years Cocoon IbizaVarious Artists - Ten Years Cocoon Ibiza CD2 Mixed By Loco Dice 3. Patrick Specke - A Bitchual Linestepper.wav

     Peak level 97.7 %
     Track quality 100.0 %
     Test CRC 60DA24F2
     Copy CRC 60DA24F2
     Track not present in AccurateRip database
     Copy OK

Track  4

     Filename J:TorrentsVA - Ten Years Cocoon IbizaVarious Artists - Ten Years Cocoon Ibiza CD2 Mixed By Loco Dice 4. Jay Haze & Ricardo Villalobos - Mellow Dee.wav

     Peak level 97.7 %
     Track quality 100.0 %
     Test CRC 18328FA9
     Copy CRC 18328FA9
     Track not present in AccurateRip database
     Copy OK

Track  5

     Filename J:TorrentsVA - Ten Years Cocoon IbizaVarious Artists - Ten Years Cocoon Ibiza CD2 Mixed By Loco Dice 5. Vlad caia - Chango.wav

     Peak level 97.7 %
     Track quality 100.0 %
     Test CRC 85B35422
     Copy CRC 85B35422
     Track not present in AccurateRip database
     Copy OK

Track  6

     Filename J:TorrentsVA - Ten Years Cocoon IbizaVarious Artists - Ten Years Cocoon Ibiza CD2 Mixed By Loco Dice 6. Ambivalent - Breath (JPLS Choke Remix).wav

     Peak level 97.7 %
     Track quality 100.0 %
     Test CRC 14ACB5EB
     Copy CRC 14ACB5EB
     Track not present in AccurateRip database
     Copy OK

Track  7

     Filename J:TorrentsVA - Ten Years Cocoon IbizaVarious Artists - Ten Years Cocoon Ibiza CD2 Mixed By Loco Dice 7. DJ Yellow Presents Mindz Kontrol Ultra - Fubu.wav

     Peak level 97.7 %
     Track quality 100.0 %
     Test CRC 9A6CB198
     Copy CRC 9A6CB198
     Track not present in AccurateRip database
     Copy OK

Track  8

     Filename J:TorrentsVA - Ten Years Cocoon IbizaVarious Artists - Ten Years Cocoon Ibiza CD2 Mixed By Loco Dice 8. Davide Squillace - One Lobster, Please (Mathias Kaden's Gambass Remix).wav

     Peak level 97.7 %
     Track quality 100.0 %
     Test CRC 77AE40EB
     Copy CRC 77AE40EB
     Track not present in AccurateRip database
     Copy OK

Track  9

     Filename J:TorrentsVA - Ten Years Cocoon IbizaVarious Artists - Ten Years Cocoon Ibiza CD2 Mixed By Loco Dice 9. Reboot + Aaron Carl - Jada Jada + Wallshaker (Original 12 Inch Mix).wav

     Peak level 97.7 %
     Track quality 100.0 %
     Test CRC B645F3F6
     Copy CRC B645F3F6
     Track not present in AccurateRip database
     Copy OK

Track 10

     Filename J:TorrentsVA - Ten Years Cocoon IbizaVarious Artists - Ten Years Cocoon Ibiza CD2 Mixed By Loco Dice10. Martinez - Black Mamba.wav

     Peak level 97.7 %
     Track quality 100.0 %
     Test CRC D47CD954
     Copy CRC D47CD954
     Track not present in AccurateRip database
     Copy OK

Track 11

     Filename J:TorrentsVA - Ten Years Cocoon IbizaVarious Artists - Ten Years Cocoon Ibiza CD2 Mixed By Loco Dice11. Marco Carola - 90's.wav

     Peak level 97.7 %
     Track quality 99.9 %
     Test CRC 180855F8
     Copy CRC 180855F8
     Track not present in AccurateRip database
     Copy OK

Track 12

     Filename J:TorrentsVA - Ten Years Cocoon IbizaVarious Artists - Ten Years Cocoon Ibiza CD2 Mixed By Loco Dice12. Brothers' Vibe - Revolution.wav

     Peak level 97.7 %
     Track quality 100.0 %
     Test CRC 1BEBFFC1
     Copy CRC 1BEBFFC1
     Track not present in AccurateRip database
     Copy OK

Track 13

     Filename J:TorrentsVA - Ten Years Cocoon IbizaVarious Artists - Ten Years Cocoon Ibiza CD2 Mixed By Loco Dice13. Ekkohaus - Unsound.wav

     Peak level 97.7 %
     Track quality 100.0 %
     Test CRC F4BAC7A0
     Copy CRC F4BAC7A0
     Track not present in AccurateRip database
     Copy OK

Track 14

     Filename J:TorrentsVA - Ten Years Cocoon IbizaVarious Artists - Ten Years Cocoon Ibiza CD2 Mixed By Loco Dice14. Carlo Lio - Crispy.wav

     Peak level 97.7 %
     Track quality 100.0 %
     Test CRC DE67D435
     Copy CRC DE67D435
     Track not present in AccurateRip database
     Copy OK

Track 15

     Filename J:TorrentsVA - Ten Years Cocoon IbizaVarious Artists - Ten Years Cocoon Ibiza CD2 Mixed By Loco Dice15. Octave One + Bernard Badie - Terraforming + Time Reveals.wav

     Peak level 97.7 %
     Track quality 100.0 %
     Test CRC DB81D410
     Copy CRC DB81D410
     Track not present in AccurateRip database
     Copy OK


None of the tracks are present in the AccurateRip database

No errors occurred

End of status report
